<svg xmlns="http://www.w3.org/2000/svg" xmlns:xlink="http://www.w3.org/1999/xlink" xml:space="preserve" id="svg5" width="800" height="418" version="1.1" viewBox="0 0 211.667 110.596"><defs id="defs2"><clipPath id="clipPath8312" clipPathUnits="userSpaceOnUse"/><clipPath id="clipPath8366" clipPathUnits="userSpaceOnUse"/><clipPath id="clipPath8372" clipPathUnits="userSpaceOnUse"/><clipPath id="clipPath8378" clipPathUnits="userSpaceOnUse"/><clipPath id="clipPath8384" clipPathUnits="userSpaceOnUse"/><clipPath id="clipPath8390" clipPathUnits="userSpaceOnUse"/><clipPath id="clipPath8396" clipPathUnits="userSpaceOnUse"/><clipPath id="clipPath8402" clipPathUnits="userSpaceOnUse"/><clipPath id="clipPath8408" clipPathUnits="userSpaceOnUse"/><clipPath id="clipPath8414" clipPathUnits="userSpaceOnUse"/><clipPath id="clipPath8420" clipPathUnits="userSpaceOnUse"/><clipPath id="clipPath8426" clipPathUnits="userSpaceOnUse"/><clipPath id="clipPath8432" clipPathUnits="userSpaceOnUse"/><clipPath id="clipPath8438" clipPathUnits="userSpaceOnUse"/><clipPath id="clipPath8444" clipPathUnits="userSpaceOnUse"/><clipPath id="clipPath8450" clipPathUnits="userSpaceOnUse"/><clipPath id="clipPath8456" clipPathUnits="userSpaceOnUse"/><clipPath id="clipPath8462" clipPathUnits="userSpaceOnUse"/><clipPath id="clipPath8468" clipPathUnits="userSpaceOnUse"/><clipPath id="clipPath8474" clipPathUnits="userSpaceOnUse"/><clipPath id="clipPath8480" clipPathUnits="userSpaceOnUse"/><clipPath id="clipPath8486" clipPathUnits="userSpaceOnUse"/><clipPath id="clipPath8492" clipPathUnits="userSpaceOnUse"/><clipPath id="clipPath8498" clipPathUnits="userSpaceOnUse"/><clipPath id="clipPath8504" clipPathUnits="userSpaceOnUse"/><clipPath id="clipPath8510" clipPathUnits="userSpaceOnUse"/><clipPath id="clipPath8516" clipPathUnits="userSpaceOnUse"/><clipPath id="clipPath8522" clipPathUnits="userSpaceOnUse"/><clipPath id="clipPath8528" clipPathUnits="userSpaceOnUse"/><clipPath id="clipPath8534" clipPathUnits="userSpaceOnUse"/><clipPath id="clipPath8540" clipPathUnits="userSpaceOnUse"/><clipPath id="clipPath8546" clipPathUnits="userSpaceOnUse"/><clipPath id="clipPath8552" clipPathUnits="userSpaceOnUse"/><clipPath id="clipPath8558" clipPathUnits="userSpaceOnUse"/><clipPath id="clipPath8564" clipPathUnits="userSpaceOnUse"/><clipPath id="clipPath8570" clipPathUnits="userSpaceOnUse"/><clipPath id="clipPath8576" clipPathUnits="userSpaceOnUse"/><clipPath id="clipPath8582" clipPathUnits="userSpaceOnUse"/><clipPath id="clipPath8588" clipPathUnits="userSpaceOnUse"/><clipPath id="clipPath8594" clipPathUnits="userSpaceOnUse"/><clipPath id="clipPath8600" clipPathUnits="userSpaceOnUse"/><clipPath id="clipPath8606" clipPathUnits="userSpaceOnUse"/><clipPath id="clipPath8612" clipPathUnits="userSpaceOnUse"/><clipPath id="clipPath8618" clipPathUnits="userSpaceOnUse"/><clipPath id="clipPath8624" clipPathUnits="userSpaceOnUse"/><clipPath id="clipPath8624-7" clipPathUnits="userSpaceOnUse"/><clipPath id="clipPath8618-2" clipPathUnits="userSpaceOnUse"/><clipPath id="clipPath8612-9" clipPathUnits="userSpaceOnUse"/><clipPath id="clipPath8606-6" clipPathUnits="userSpaceOnUse"/><clipPath id="clipPath8600-9" clipPathUnits="userSpaceOnUse"/><clipPath id="clipPath8594-9" clipPathUnits="userSpaceOnUse"/><clipPath id="clipPath8588-8" clipPathUnits="userSpaceOnUse"/><clipPath id="clipPath8582-0" clipPathUnits="userSpaceOnUse"/><clipPath id="clipPath8576-1" clipPathUnits="userSpaceOnUse"/><clipPath id="clipPath8570-3" clipPathUnits="userSpaceOnUse"/><clipPath id="clipPath8564-6" clipPathUnits="userSpaceOnUse"/><clipPath id="clipPath8558-5" clipPathUnits="userSpaceOnUse"/><clipPath id="clipPath8552-6" clipPathUnits="userSpaceOnUse"/><clipPath id="clipPath8546-9" clipPathUnits="userSpaceOnUse"/><clipPath id="clipPath8540-4" clipPathUnits="userSpaceOnUse"/><clipPath id="clipPath8534-5" clipPathUnits="userSpaceOnUse"/><clipPath id="clipPath8528-4" clipPathUnits="userSpaceOnUse"/><clipPath id="clipPath8522-0" clipPathUnits="userSpaceOnUse"/><clipPath id="clipPath8516-6" clipPathUnits="userSpaceOnUse"/><clipPath id="clipPath8510-4" clipPathUnits="userSpaceOnUse"/><clipPath id="clipPath8504-4" clipPathUnits="userSpaceOnUse"/><clipPath id="clipPath8498-0" clipPathUnits="userSpaceOnUse"/><clipPath id="clipPath8492-9" clipPathUnits="userSpaceOnUse"/><clipPath id="clipPath8486-6" clipPathUnits="userSpaceOnUse"/><clipPath id="clipPath8480-5" clipPathUnits="userSpaceOnUse"/><clipPath id="clipPath8474-8" clipPathUnits="userSpaceOnUse"/><clipPath id="clipPath8468-7" clipPathUnits="userSpaceOnUse"/><clipPath id="clipPath8462-2" clipPathUnits="userSpaceOnUse"/><clipPath id="clipPath8456-1" clipPathUnits="userSpaceOnUse"/><clipPath id="clipPath8450-1" clipPathUnits="userSpaceOnUse"/><clipPath id="clipPath8444-4" clipPathUnits="userSpaceOnUse"/><clipPath id="clipPath8438-9" clipPathUnits="userSpaceOnUse"/><clipPath id="clipPath8432-7" clipPathUnits="userSpaceOnUse"/><clipPath id="clipPath8426-5" clipPathUnits="userSpaceOnUse"/><clipPath id="clipPath8420-7" clipPathUnits="userSpaceOnUse"/><clipPath id="clipPath8414-3" clipPathUnits="userSpaceOnUse"/><clipPath id="clipPath8408-6" clipPathUnits="userSpaceOnUse"/><clipPath id="clipPath8402-4" clipPathUnits="userSpaceOnUse"/><clipPath id="clipPath8396-2" clipPathUnits="userSpaceOnUse"/><clipPath id="clipPath8390-9" clipPathUnits="userSpaceOnUse"/><clipPath id="clipPath8384-8" clipPathUnits="userSpaceOnUse"/><clipPath id="clipPath8378-9" clipPathUnits="userSpaceOnUse"/><clipPath id="clipPath8372-8" clipPathUnits="userSpaceOnUse"/><clipPath id="clipPath8366-1" clipPathUnits="userSpaceOnUse"/><clipPath id="clipPath8312-9" clipPathUnits="userSpaceOnUse"/><clipPath id="SVGID_00000171683391743852478260000002390994208354331064_"><use xlink:href="#SVGID_00000027573604992125855210000001097089857358505618_-8" id="use1616" style="overflow:visible"/></clipPath><clipPath id="SVGID_00000181778973928023992280000001083650727911778446_"><use xlink:href="#SVGID_00000049943284894445118840000014396408023471052980_-2" id="use1714" style="overflow:visible"/></clipPath><path id="SVGID_00000027573604992125855210000001097089857358505618_-8" d="M40.8 136.5h198.8c-2.4-14.3-14.7-24.8-29.2-24.8H70c-14.5.1-26.8 10.6-29.2 24.8z"/><path id="SVGID_00000049943284894445118840000014396408023471052980_-2" d="M40.4 237.3v1.6c0 16.4 13.3 29.6 29.6 29.6h140.4c16.4 0 29.6-13.3 29.6-29.6v-1.6zm80.9 14.7c0-2.4 2-4.4 4.4-4.4h29c2.4 0 4.4 2 4.4 4.4 0 2.4-2 4.4-4.4 4.4h-29c-2.4.1-4.4-1.9-4.4-4.4z"/><path id="path3028" d="M40.4 237.3v1.6c0 16.4 13.3 29.6 29.6 29.6h140.4c16.4 0 29.6-13.3 29.6-29.6v-1.6zm80.9 14.7c0-2.4 2-4.4 4.4-4.4h29c2.4 0 4.4 2 4.4 4.4 0 2.4-2 4.4-4.4 4.4h-29c-2.4.1-4.4-1.9-4.4-4.4z"/><path id="path3030" d="M40.8 136.5h198.8c-2.4-14.3-14.7-24.8-29.2-24.8H70c-14.5.1-26.8 10.6-29.2 24.8z"/><path id="SVGID_00000179625833503168757930000017374847827999470230_" d="M701.4 128.2c-2-4.9-10-15.7-40.9-15.7s-38.9 10.8-40.9 15.7c-.5 1.1-.7 2.3-.7 3.5v26.9h46v8.3h-71.7s-27.6-2-27.6 45.2 27.6 45.2 27.6 45.2h17.4v-22.5c0-17.5 14.2-31.8 31.8-31.8h39.2c11.4 0 20.6-9.2 20.6-20.7v-50.8c-.1-1-.3-2.2-.8-3.3zm-63.5 19.3c-4.6 0-8.3-3.7-8.3-8.3 0-4.6 3.7-8.3 8.3-8.3 4.6 0 8.3 3.7 8.3 8.3 0 4.6-3.7 8.3-8.3 8.3z"/><path id="path19127" d="M40.8 136.5h198.8c-2.4-14.3-14.7-24.8-29.2-24.8H70c-14.5.1-26.8 10.6-29.2 24.8z"/><path id="path19178" d="M40.4 237.3v1.6c0 16.4 13.3 29.6 29.6 29.6h140.4c16.4 0 29.6-13.3 29.6-29.6v-1.6zm80.9 14.7c0-2.4 2-4.4 4.4-4.4h29c2.4 0 4.4 2 4.4 4.4 0 2.4-2 4.4-4.4 4.4h-29c-2.4.1-4.4-1.9-4.4-4.4z"/><pattern xlink:href="#pattern2684" id="pattern4178" patternTransform="matrix(.26458 0 0 .26458 542.922 -34.466)"/><pattern xlink:href="#pattern2684" id="pattern4121" patternTransform="translate(127.274 78.974)scale(.23332)"/><pattern xlink:href="#pattern2684" id="pattern4042" patternTransform="translate(169.335 9.856)scale(.18404)"/><pattern xlink:href="#pattern2684" id="pattern4037" patternTransform="translate(153.02 65.82)scale(.20585)"/><pattern id="pattern2684" width="748.935" height="270.374" patternTransform="translate(379.341 -287.01)" patternUnits="userSpaceOnUse"><g id="g2682" transform="matrix(3.77953 0 0 3.77953 -497.062 -222.103)"><path id="use2382" d="m131.701 130.114 71.163-71.162" style="fill:#000;fill-opacity:0;stroke:#4ea8f1;stroke-width:.529167;stroke-linecap:butt;stroke-linejoin:miter;stroke-dasharray:none;stroke-opacity:1"/><path id="use2384" d="m133.847 130.114 71.163-71.162" style="fill:#000;fill-opacity:0;stroke:#4ea8f1;stroke-width:.529167;stroke-linecap:butt;stroke-linejoin:miter;stroke-dasharray:none;stroke-opacity:1"/><path id="use2386" d="m135.994 130.114 71.162-71.162" style="fill:#000;fill-opacity:0;stroke:#4ea8f1;stroke-width:.529167;stroke-linecap:butt;stroke-linejoin:miter;stroke-dasharray:none;stroke-opacity:1"/><path id="use2388" d="m138.14 130.114 71.162-71.162" style="fill:#000;fill-opacity:0;stroke:#4ea8f1;stroke-width:.529167;stroke-linecap:butt;stroke-linejoin:miter;stroke-dasharray:none;stroke-opacity:1"/><path id="use2390" d="m140.286 130.114 71.162-71.162" style="fill:#000;fill-opacity:0;stroke:#4ea8f1;stroke-width:.529167;stroke-linecap:butt;stroke-linejoin:miter;stroke-dasharray:none;stroke-opacity:1"/><path id="use2392" d="m142.432 130.114 71.162-71.162" style="fill:#000;fill-opacity:0;stroke:#4ea8f1;stroke-width:.529167;stroke-linecap:butt;stroke-linejoin:miter;stroke-dasharray:none;stroke-opacity:1"/><path id="use2394" d="m144.578 130.114 71.162-71.162" style="fill:#000;fill-opacity:0;stroke:#4ea8f1;stroke-width:.529167;stroke-linecap:butt;stroke-linejoin:miter;stroke-dasharray:none;stroke-opacity:1"/><path id="use2396" d="m146.724 130.114 71.162-71.162" style="fill:#000;fill-opacity:0;stroke:#4ea8f1;stroke-width:.529167;stroke-linecap:butt;stroke-linejoin:miter;stroke-dasharray:none;stroke-opacity:1"/><path id="use2398" d="m148.87 130.114 71.162-71.162" style="fill:#000;fill-opacity:0;stroke:#4ea8f1;stroke-width:.529167;stroke-linecap:butt;stroke-linejoin:miter;stroke-dasharray:none;stroke-opacity:1"/><path id="use2400" d="m151.016 130.114 71.162-71.162" style="fill:#000;fill-opacity:0;stroke:#4ea8f1;stroke-width:.529167;stroke-linecap:butt;stroke-linejoin:miter;stroke-dasharray:none;stroke-opacity:1"/><path id="use2402" d="m153.162 130.114 71.162-71.162" style="fill:#000;fill-opacity:0;stroke:#4ea8f1;stroke-width:.529167;stroke-linecap:butt;stroke-linejoin:miter;stroke-dasharray:none;stroke-opacity:1"/><path id="use2404" d="m155.308 130.114 71.163-71.162" style="fill:#000;fill-opacity:0;stroke:#4ea8f1;stroke-width:.529167;stroke-linecap:butt;stroke-linejoin:miter;stroke-dasharray:none;stroke-opacity:1"/><path id="use2406" d="m157.454 130.114 71.163-71.162" style="fill:#000;fill-opacity:0;stroke:#4ea8f1;stroke-width:.529167;stroke-linecap:butt;stroke-linejoin:miter;stroke-dasharray:none;stroke-opacity:1"/><path id="use2408" d="m159.6 130.114 71.163-71.162" style="fill:#000;fill-opacity:0;stroke:#4ea8f1;stroke-width:.529167;stroke-linecap:butt;stroke-linejoin:miter;stroke-dasharray:none;stroke-opacity:1"/><path id="use2410" d="m161.747 130.114 71.162-71.162" style="fill:#000;fill-opacity:0;stroke:#4ea8f1;stroke-width:.529167;stroke-linecap:butt;stroke-linejoin:miter;stroke-dasharray:none;stroke-opacity:1"/><path id="use2412" d="m163.893 130.114 71.162-71.162" style="fill:#000;fill-opacity:0;stroke:#4ea8f1;stroke-width:.529167;stroke-linecap:butt;stroke-linejoin:miter;stroke-dasharray:none;stroke-opacity:1"/><path id="use2414" d="M166.039 130.114 237.2 58.952" style="fill:#000;fill-opacity:0;stroke:#4ea8f1;stroke-width:.529167;stroke-linecap:butt;stroke-linejoin:miter;stroke-dasharray:none;stroke-opacity:1"/><path id="use2416" d="m168.185 130.114 71.162-71.162" style="fill:#000;fill-opacity:0;stroke:#4ea8f1;stroke-width:.529167;stroke-linecap:butt;stroke-linejoin:miter;stroke-dasharray:none;stroke-opacity:1"/><path id="use2418" d="m170.331 130.114 71.162-71.162" style="fill:#000;fill-opacity:0;stroke:#4ea8f1;stroke-width:.529167;stroke-linecap:butt;stroke-linejoin:miter;stroke-dasharray:none;stroke-opacity:1"/><path id="use2420" d="m172.477 130.114 71.162-71.162" style="fill:#000;fill-opacity:0;stroke:#4ea8f1;stroke-width:.529167;stroke-linecap:butt;stroke-linejoin:miter;stroke-dasharray:none;stroke-opacity:1"/><path id="use2422" d="m174.623 130.114 71.162-71.162" style="fill:#000;fill-opacity:0;stroke:#4ea8f1;stroke-width:.529167;stroke-linecap:butt;stroke-linejoin:miter;stroke-dasharray:none;stroke-opacity:1"/><path id="use2424" d="m176.77 130.114 71.161-71.162" style="fill:#000;fill-opacity:0;stroke:#4ea8f1;stroke-width:.529167;stroke-linecap:butt;stroke-linejoin:miter;stroke-dasharray:none;stroke-opacity:1"/><path id="use2426" d="m178.915 130.114 71.163-71.162" style="fill:#000;fill-opacity:0;stroke:#4ea8f1;stroke-width:.529167;stroke-linecap:butt;stroke-linejoin:miter;stroke-dasharray:none;stroke-opacity:1"/><path id="use2428" d="m181.061 130.114 71.163-71.162" style="fill:#000;fill-opacity:0;stroke:#4ea8f1;stroke-width:.529167;stroke-linecap:butt;stroke-linejoin:miter;stroke-dasharray:none;stroke-opacity:1"/><path id="use2430" d="m183.208 130.114 71.162-71.162" style="fill:#000;fill-opacity:0;stroke:#4ea8f1;stroke-width:.529167;stroke-linecap:butt;stroke-linejoin:miter;stroke-dasharray:none;stroke-opacity:1"/><path id="use2432" d="m185.354 130.114 71.162-71.162" style="fill:#000;fill-opacity:0;stroke:#4ea8f1;stroke-width:.529167;stroke-linecap:butt;stroke-linejoin:miter;stroke-dasharray:none;stroke-opacity:1"/><path id="use2434" d="m187.5 130.114 71.162-71.162" style="fill:#000;fill-opacity:0;stroke:#4ea8f1;stroke-width:.529167;stroke-linecap:butt;stroke-linejoin:miter;stroke-dasharray:none;stroke-opacity:1"/><path id="use2436" d="m189.646 130.114 71.162-71.162" style="fill:#000;fill-opacity:0;stroke:#4ea8f1;stroke-width:.529167;stroke-linecap:butt;stroke-linejoin:miter;stroke-dasharray:none;stroke-opacity:1"/><path id="use2438" d="m191.792 130.114 71.162-71.162" style="fill:#000;fill-opacity:0;stroke:#4ea8f1;stroke-width:.529167;stroke-linecap:butt;stroke-linejoin:miter;stroke-dasharray:none;stroke-opacity:1"/><path id="use2440" d="M193.938 130.114 265.1 58.952" style="fill:#000;fill-opacity:0;stroke:#4ea8f1;stroke-width:.529167;stroke-linecap:butt;stroke-linejoin:miter;stroke-dasharray:none;stroke-opacity:1"/><path id="use2442" d="m196.084 130.114 71.162-71.162" style="fill:#000;fill-opacity:0;stroke:#4ea8f1;stroke-width:.529167;stroke-linecap:butt;stroke-linejoin:miter;stroke-dasharray:none;stroke-opacity:1"/><path id="use2444" d="m198.23 130.114 71.162-71.162" style="fill:#000;fill-opacity:0;stroke:#4ea8f1;stroke-width:.529167;stroke-linecap:butt;stroke-linejoin:miter;stroke-dasharray:none;stroke-opacity:1"/><path id="use2446" d="m200.376 130.114 71.162-71.162" style="fill:#000;fill-opacity:0;stroke:#4ea8f1;stroke-width:.529167;stroke-linecap:butt;stroke-linejoin:miter;stroke-dasharray:none;stroke-opacity:1"/><path id="use2448" d="m202.522 130.114 71.163-71.162" style="fill:#000;fill-opacity:0;stroke:#4ea8f1;stroke-width:.529167;stroke-linecap:butt;stroke-linejoin:miter;stroke-dasharray:none;stroke-opacity:1"/><path id="use2450" d="m204.668 130.114 71.163-71.162" style="fill:#000;fill-opacity:0;stroke:#4ea8f1;stroke-width:.529167;stroke-linecap:butt;stroke-linejoin:miter;stroke-dasharray:none;stroke-opacity:1"/><path id="use2452" d="m206.815 130.114 71.162-71.162" style="fill:#000;fill-opacity:0;stroke:#4ea8f1;stroke-width:.529167;stroke-linecap:butt;stroke-linejoin:miter;stroke-dasharray:none;stroke-opacity:1"/><path id="use2454" d="m208.96 130.114 71.163-71.162" style="fill:#000;fill-opacity:0;stroke:#4ea8f1;stroke-width:.529167;stroke-linecap:butt;stroke-linejoin:miter;stroke-dasharray:none;stroke-opacity:1"/><path id="use2456" d="m211.107 130.114 71.162-71.162" style="fill:#000;fill-opacity:0;stroke:#4ea8f1;stroke-width:.529167;stroke-linecap:butt;stroke-linejoin:miter;stroke-dasharray:none;stroke-opacity:1"/><path id="use2458" d="m213.253 130.114 71.162-71.162" style="fill:#000;fill-opacity:0;stroke:#4ea8f1;stroke-width:.529167;stroke-linecap:butt;stroke-linejoin:miter;stroke-dasharray:none;stroke-opacity:1"/><path id="use2460" d="m215.399 130.114 71.162-71.162" style="fill:#000;fill-opacity:0;stroke:#4ea8f1;stroke-width:.529167;stroke-linecap:butt;stroke-linejoin:miter;stroke-dasharray:none;stroke-opacity:1"/><path id="use2462" d="m217.545 130.114 71.162-71.162" style="fill:#000;fill-opacity:0;stroke:#4ea8f1;stroke-width:.529167;stroke-linecap:butt;stroke-linejoin:miter;stroke-dasharray:none;stroke-opacity:1"/><path id="use2464" d="m219.691 130.114 71.162-71.162" style="fill:#000;fill-opacity:0;stroke:#4ea8f1;stroke-width:.529167;stroke-linecap:butt;stroke-linejoin:miter;stroke-dasharray:none;stroke-opacity:1"/><path id="use2466" d="M221.837 130.114 293 58.952" style="fill:#000;fill-opacity:0;stroke:#4ea8f1;stroke-width:.529167;stroke-linecap:butt;stroke-linejoin:miter;stroke-dasharray:none;stroke-opacity:1"/><path id="use2468" d="m223.983 130.114 71.163-71.162" style="fill:#000;fill-opacity:0;stroke:#4ea8f1;stroke-width:.529167;stroke-linecap:butt;stroke-linejoin:miter;stroke-dasharray:none;stroke-opacity:1"/><path id="use2470" d="m226.13 130.114 71.162-71.162" style="fill:#000;fill-opacity:0;stroke:#4ea8f1;stroke-width:.529167;stroke-linecap:butt;stroke-linejoin:miter;stroke-dasharray:none;stroke-opacity:1"/><path id="use2472" d="m228.275 130.114 71.163-71.162" style="fill:#000;fill-opacity:0;stroke:#4ea8f1;stroke-width:.529167;stroke-linecap:butt;stroke-linejoin:miter;stroke-dasharray:none;stroke-opacity:1"/><path id="use2474" d="m230.422 130.114 71.162-71.162" style="fill:#000;fill-opacity:0;stroke:#4ea8f1;stroke-width:.529167;stroke-linecap:butt;stroke-linejoin:miter;stroke-dasharray:none;stroke-opacity:1"/><path id="use2476" d="m232.568 130.114 71.162-71.162" style="fill:#000;fill-opacity:0;stroke:#4ea8f1;stroke-width:.529167;stroke-linecap:butt;stroke-linejoin:miter;stroke-dasharray:none;stroke-opacity:1"/><path id="use2478" d="m234.714 130.114 71.162-71.162" style="fill:#000;fill-opacity:0;stroke:#4ea8f1;stroke-width:.529167;stroke-linecap:butt;stroke-linejoin:miter;stroke-dasharray:none;stroke-opacity:1"/><path id="use2480" d="m236.86 130.114 71.162-71.162" style="fill:#000;fill-opacity:0;stroke:#4ea8f1;stroke-width:.529167;stroke-linecap:butt;stroke-linejoin:miter;stroke-dasharray:none;stroke-opacity:1"/><path id="use2482" d="m239.006 130.114 71.162-71.162" style="fill:#000;fill-opacity:0;stroke:#4ea8f1;stroke-width:.529167;stroke-linecap:butt;stroke-linejoin:miter;stroke-dasharray:none;stroke-opacity:1"/><path id="use2484" d="m241.152 130.114 71.162-71.162" style="fill:#000;fill-opacity:0;stroke:#4ea8f1;stroke-width:.529167;stroke-linecap:butt;stroke-linejoin:miter;stroke-dasharray:none;stroke-opacity:1"/><path id="use2486" d="m243.298 130.114 71.162-71.162" style="fill:#000;fill-opacity:0;stroke:#4ea8f1;stroke-width:.529167;stroke-linecap:butt;stroke-linejoin:miter;stroke-dasharray:none;stroke-opacity:1"/><path id="use2488" d="m245.444 130.114 71.162-71.162" style="fill:#000;fill-opacity:0;stroke:#4ea8f1;stroke-width:.529167;stroke-linecap:butt;stroke-linejoin:miter;stroke-dasharray:none;stroke-opacity:1"/><path id="use2490" d="m247.59 130.114 71.163-71.162" style="fill:#000;fill-opacity:0;stroke:#4ea8f1;stroke-width:.529167;stroke-linecap:butt;stroke-linejoin:miter;stroke-dasharray:none;stroke-opacity:1"/><path id="use2492" d="M249.736 130.114 320.9 58.952" style="fill:#000;fill-opacity:0;stroke:#4ea8f1;stroke-width:.529167;stroke-linecap:butt;stroke-linejoin:miter;stroke-dasharray:none;stroke-opacity:1"/><path id="use2494" d="m251.882 130.114 71.163-71.162" style="fill:#000;fill-opacity:0;stroke:#4ea8f1;stroke-width:.529167;stroke-linecap:butt;stroke-linejoin:miter;stroke-dasharray:none;stroke-opacity:1"/><path id="use2496" d="m254.029 130.114 71.162-71.162" style="fill:#000;fill-opacity:0;stroke:#4ea8f1;stroke-width:.529167;stroke-linecap:butt;stroke-linejoin:miter;stroke-dasharray:none;stroke-opacity:1"/><path id="use2498" d="m256.175 130.114 71.162-71.162" style="fill:#000;fill-opacity:0;stroke:#4ea8f1;stroke-width:.529167;stroke-linecap:butt;stroke-linejoin:miter;stroke-dasharray:none;stroke-opacity:1"/><path id="use2500" d="m258.32 130.114 71.163-71.162" style="fill:#000;fill-opacity:0;stroke:#4ea8f1;stroke-width:.529167;stroke-linecap:butt;stroke-linejoin:miter;stroke-dasharray:none;stroke-opacity:1"/></g></pattern><defs id="defs1712"><path id="SVGID_00000049943284894445118840000014396408023471052980_" d="M40.4 237.3v1.6c0 16.4 13.3 29.6 29.6 29.6h140.4c16.4 0 29.6-13.3 29.6-29.6v-1.6zm80.9 14.7c0-2.4 2-4.4 4.4-4.4h29c2.4 0 4.4 2 4.4 4.4 0 2.4-2 4.4-4.4 4.4h-29c-2.4.1-4.4-1.9-4.4-4.4z"/></defs><defs id="defs1614"><path id="SVGID_00000027573604992125855210000001097089857358505618_" d="M40.8 136.5h198.8c-2.4-14.3-14.7-24.8-29.2-24.8H70c-14.5.1-26.8 10.6-29.2 24.8z"/></defs><linearGradient id="linearGradient2751"><stop id="stop2749" offset="0" style="stop-color:#4ea8f1;stop-opacity:1"/></linearGradient></defs><g id="layer1" transform="translate(-31.147 -134.703)"><g id="backgrounds-9" style="fill:#fff;fill-opacity:1" transform="matrix(.26458 0 0 .26458 31.147 134.703)"><path id="rect2498" d="M0 0h800v418H0Z" class="st0" style="fill:#fff;fill-opacity:1"/></g><g id="g1595" transform="matrix(.26458 0 0 .26458 30.689 126.494)"><g id="g1585"><path id="path1583" d="M257.8 290.1H251c-.6 0-1.1-.5-1.1-1.1 0-.6.5-1.1 1.1-1.1h6.7c.6 0 1.1.5 1.1 1.1 0 .6-.4 1.1-1 1.1z" class="st0"/></g><g id="g1589"><path id="path1587" d="M539.2 290.1h-14.1c-.6 0-1.1-.5-1.1-1.1 0-.6.5-1.1 1.1-1.1h14.1c.6 0 1.1.5 1.1 1.1 0 .6-.5 1.1-1.1 1.1zm-28.1 0H497c-.6 0-1.1-.5-1.1-1.1 0-.6.5-1.1 1.1-1.1h14.1c.6 0 1.1.5 1.1 1.1 0 .6-.5 1.1-1.1 1.1zm-28.2 0h-14.1c-.6 0-1.1-.5-1.1-1.1 0-.6.5-1.1 1.1-1.1h14.1c.6 0 1.1.5 1.1 1.1 0 .6-.5 1.1-1.1 1.1zm-28.1 0h-14.1c-.6 0-1.1-.5-1.1-1.1 0-.6.5-1.1 1.1-1.1h14.1c.6 0 1.1.5 1.1 1.1 0 .6-.5 1.1-1.1 1.1zm-28.2 0h-14.1c-.6 0-1.1-.5-1.1-1.1 0-.6.5-1.1 1.1-1.1h14.1c.6 0 1.1.5 1.1 1.1 0 .6-.4 1.1-1.1 1.1zm-28.1 0h-14.1c-.6 0-1.1-.5-1.1-1.1 0-.6.5-1.1 1.1-1.1h14.1c.6 0 1.1.5 1.1 1.1 0 .6-.5 1.1-1.1 1.1zm-28.2 0h-14.1c-.6 0-1.1-.5-1.1-1.1 0-.6.5-1.1 1.1-1.1h14.1c.6 0 1.1.5 1.1 1.1 0 .6-.4 1.1-1.1 1.1zm-28.1 0h-14.1c-.6 0-1.1-.5-1.1-1.1 0-.6.5-1.1 1.1-1.1h14.1c.6 0 1.1.5 1.1 1.1 0 .6-.5 1.1-1.1 1.1zm-28.1 0H300c-.6 0-1.1-.5-1.1-1.1 0-.6.5-1.1 1.1-1.1h14.1c.6 0 1.1.5 1.1 1.1 0 .6-.5 1.1-1.1 1.1zm-28.2 0h-14.1c-.6 0-1.1-.5-1.1-1.1 0-.6.5-1.1 1.1-1.1h14.1c.6 0 1.1.5 1.1 1.1 0 .6-.5 1.1-1.1 1.1z" class="st0"/></g><g id="g1593"><path id="path1591" d="M560 290.1h-6.7c-.6 0-1.1-.5-1.1-1.1 0-.6.5-1.1 1.1-1.1h6.7c.6 0 1.1.5 1.1 1.1 0 .6-.5 1.1-1.1 1.1z" class="st0"/></g></g><path id="path1819" d="M187.481 203.488a6.383 6.383 0 0 1-4.207-1.773c-2.222-2.064-3.36-5.636-3.36-10.61 0-4.974 1.138-8.546 3.36-10.61a6.294 6.294 0 0 1 4.392-1.772h18.521v-1.35H194.44a.418.418 0 0 1-.424-.423v-7.117c0-.37.08-.741.212-1.085.556-1.323 2.725-4.419 11.218-4.419 8.467 0 10.663 3.096 11.219 4.419.132.344.211.714.211 1.085v13.44c0 3.255-2.646 5.874-5.9 5.9h-10.372a7.983 7.983 0 0 0-7.99 7.991v5.953a.425.425 0 0 1-.132.291c-.08.08-.186.106-.291.133h-4.578c0-.053-.053-.053-.132-.053zm.053-23.945a5.719 5.719 0 0 0-3.704 1.56c-2.038 1.906-3.07 5.266-3.07 9.976 0 4.736 1.032 8.096 3.096 10a5.54 5.54 0 0 0 3.757 1.562h4.207v-5.503c0-4.869 3.942-8.811 8.837-8.837h10.372c2.778 0 5.027-2.25 5.053-5.054v-13.44c0-.265-.052-.53-.158-.768-.477-1.164-2.46-3.89-10.425-3.89-7.964 0-9.948 2.726-10.424 3.89a1.898 1.898 0 0 0-.16.767v6.694h11.748c.238 0 .424.185.424.423v2.197a.418.418 0 0 1-.424.423h-19.13zm11.933-5.133a2.608 2.608 0 0 1-2.62-2.62 2.608 2.608 0 0 1 2.62-2.619 2.608 2.608 0 0 1 2.619 2.62 2.608 2.608 0 0 1-2.62 2.619zm0-4.366a1.773 1.773 0 1 0 1.772 1.773c0-.979-.793-1.773-1.772-1.773z" class="st0" style="stroke-width:.264583"/><path id="path1821" d="M206.372 216.214c-8.466 0-10.662-3.095-11.218-4.418a3.044 3.044 0 0 1-.212-1.085V197.27c0-3.254 2.646-5.874 5.9-5.9h10.372a7.983 7.983 0 0 0 7.99-7.99v-5.954c0-.106.053-.211.133-.29.08-.08.185-.107.29-.133h4.578c1.64 0 3.202.635 4.366 1.773 2.222 2.063 3.36 5.635 3.36 10.61 0 4.974-1.138 8.545-3.36 10.61a6.294 6.294 0 0 1-4.392 1.772h-18.521v1.35h11.747c.239 0 .424.184.424.423v7.117c0 .37-.08.74-.212 1.085-.582 1.375-2.778 4.471-11.245 4.471zm-5.53-23.971c-2.778 0-5.027 2.249-5.053 5.053v13.441c0 .265.053.53.159.768.476 1.164 2.46 3.889 10.424 3.889 7.964 0 9.949-2.725 10.425-3.89.106-.238.159-.502.159-.767v-6.72h-11.748a.418.418 0 0 1-.423-.423v-2.197c0-.238.185-.423.423-.423h18.97c1.43 0 2.779-.582 3.81-1.56 2.038-1.906 3.07-5.266 3.07-9.976 0-4.736-1.032-8.096-3.096-10.001a5.54 5.54 0 0 0-3.757-1.561h-4.18v5.53c0 4.868-3.969 8.81-8.837 8.837zm11.51 19.076a2.608 2.608 0 0 1-2.62-2.619 2.608 2.608 0 0 1 2.62-2.62 2.608 2.608 0 0 1 2.62 2.62 2.608 2.608 0 0 1-2.62 2.62zm0-4.392a1.773 1.773 0 1 0 1.773 1.773c0-.979-.794-1.746-1.773-1.773z" class="st0" style="stroke-width:.264583"/><g id="g1565" transform="matrix(.26458 0 0 .26458 29.101 147.66)"><g id="g1513"><path id="path1509" d="M308.3 163.1c-1-.4-2.1 0-2.8.7l-1.3-.5c-1.3-.5-2.7.2-3.2 1.5l-1.7 4.7c-.5 1.3.2 2.7 1.5 3.2l8.6 3.2c1.3.5 2.7-.2 3.2-1.5l1.7-4.7c.5-1.3-.2-2.7-1.5-3.2l-1.3-.5c0-1-.6-2-1.6-2.4zm1.4 3.2c-.2.4.1.9.5 1.1l1.9.7c.4.2.7.6.5 1.1l-1.7 4.7c-.2.4-.6.7-1.1.5l-8.6-3.2c-.4-.2-.7-.6-.5-1.1l1.7-4.7c.2-.4.6-.7 1.1-.5l1.9.7c.4.2.9-.1 1.1-.5.2-.4.6-.7 1.1-.5l1.6.6c.5.2.7.7.5 1.1z" class="st0"/><path id="path1511" d="M304.4 168.8c-.5 1.3.2 2.7 1.5 3.2s2.7-.2 3.2-1.5-.2-2.7-1.5-3.2-2.7.2-3.2 1.5zm3.1 1.1c-.2.4-.6.7-1.1.5-.4-.2-.7-.6-.5-1.1.2-.4.6-.7 1.1-.5.5.2.7.7.5 1.1z" class="st0"/></g><g id="g1523"><path id="path1515" d="M429.2 176.6c.4 0 .8-.4.8-.8v-12.6c0-.4-.4-.8-.8-.8h-9.5c-.4 0-.8.4-.8.8v12.6c0 .4.4.8.8.8zm-8.7-12.6h7.9v11h-7.9z" class="st0"/><path id="path1517" d="M426 165.5h-1.6c-.4 0-.8.4-.8.8s.4.8.8.8h1.6c.4 0 .8-.4.8-.8s-.3-.8-.8-.8z" class="st0"/><path id="path1519" d="M426 168.7h-3.2c-.4 0-.8.4-.8.8s.4.8.8.8h3.2c.4 0 .8-.4.8-.8s-.3-.8-.8-.8z" class="st0"/><path id="path1521" d="M426 171.9h-3.2c-.4 0-.8.4-.8.8s.4.8.8.8h3.2c.4 0 .8-.4.8-.8 0-.5-.3-.8-.8-.8z" class="st0"/></g><g id="g1533"><path id="path1525" d="M520.6 172.7c.4-.2.5-.7.2-1.1l-7.1-10.4c-.2-.4-.7-.5-1.1-.2l-7.8 5.3c-.4.2-.5.7-.2 1.1l7.1 10.4c.2.4.7.5 1.1.2zm-14.3-5.5 6.5-4.5 6.2 9.1-6.5 4.5z" class="st0"/><path id="path1527" d="m511.8 165.3-1.3.9c-.4.2-.5.7-.2 1.1.3.4.7.5 1.1.2l1.3-.9c.4-.2.5-.7.2-1.1-.3-.4-.7-.4-1.1-.2z" class="st0"/><path id="path1529" d="m513.6 168-2.6 1.8c-.4.2-.5.7-.2 1.1.2.4.7.5 1.1.2l2.6-1.8c.4-.2.5-.7.2-1.1-.3-.4-.8-.5-1.1-.2z" class="st0"/><path id="path1531" d="m515.4 170.6-2.6 1.8c-.4.2-.5.7-.2 1.1.3.4.7.5 1.1.2l2.6-1.8c.4-.2.5-.7.2-1.1-.3-.4-.8-.5-1.1-.2z" class="st0"/></g><g id="g1539"><path id="path1535" d="M399.7 162.9h-9.4c-1.1 0-1.9.9-1.9 1.9v9.4c0 1.1.9 1.9 1.9 1.9h9.4c1.1 0 1.9-.9 1.9-1.9v-9.4c0-1.1-.8-1.9-1.9-1.9zm-6.1 9.4c.3.2.6.2.9 0l3.6-3.7 2.3 2.8v2.8c0 .3-.3.6-.6.6h-9.4c-.3 0-.6-.3-.6-.6V173l2.3-2zm3.6-4.7-3.2 3.2-1.1-.9c-.5-.4-1.2-.4-1.6 0l-1.5 1.3v-6.5c0-.3.3-.6.6-.6h9.4c.3 0 .6.3.6.6v4.5l-1.3-1.6c-.2-.3-.6-.5-.9-.5-.4.1-.8.3-1 .5z" class="st0"/><path id="path1537" d="M392.7 164.4c-1.2 0-2.1.9-2.1 2.1 0 1.2.9 2.1 2.1 2.1 1.2 0 2.1-.9 2.1-2.1 0-1.2-1-2.1-2.1-2.1zm.7 2.1c0 .4-.3.8-.8.8-.4 0-.8-.3-.8-.8s.3-.8.8-.8c.5.1.8.4.8.8z" class="st0"/></g><g id="g1545"><path id="path1541" d="M488 162.9h-9.4c-1.1 0-1.9.9-1.9 1.9v9.4c0 1.1.9 1.9 1.9 1.9h9.4c1.1 0 1.9-.9 1.9-1.9v-9.4c0-1.1-.8-1.9-1.9-1.9zm-6.2 9.4c.3.2.6.2.9 0l3.6-3.7 2.3 2.8v2.8c0 .3-.3.6-.6.6h-9.4c-.3 0-.6-.3-.6-.6V173l2.3-2zm3.6-4.7-3.2 3.2-1.1-.9c-.5-.4-1.2-.4-1.6 0l-1.5 1.3v-6.5c0-.3.3-.6.6-.6h9.4c.3 0 .6.3.6.6v4.5l-1.3-1.6c-.2-.3-.6-.5-.9-.5-.3.1-.7.3-1 .5z" class="st0"/><path id="path1543" d="M481 164.4c-1.2 0-2.1.9-2.1 2.1 0 1.2.9 2.1 2.1 2.1 1.2 0 2.1-.9 2.1-2.1 0-1.2-1-2.1-2.1-2.1zm.7 2.1c0 .4-.3.8-.8.8-.4 0-.8-.3-.8-.8s.3-.8.8-.8c.5.1.8.4.8.8z" class="st0"/></g><g id="g1551"><path id="path1547" d="m336.9 161.4-8.1 4.8c-.9.5-1.2 1.7-.7 2.6l4.8 8.1c.5.9 1.7 1.2 2.6.7l8.1-4.8c.9-.5 1.2-1.7.7-2.6l-4.8-8.1c-.6-.9-1.7-1.2-2.6-.7zm-.6 11.2c.3.1.7-.2.7-.5l1.2-5 3.4 1.3 1.4 2.4c.2.3.1.6-.2.8l-8.1 4.8c-.3.2-.6.1-.8-.2l-.6-1.1 1-2.9zm.8-5.8-1.1 4.4-1.4-.2c-.6-.1-1.2.3-1.4.8l-.6 1.9-3.3-5.6c-.2-.3-.1-.6.2-.8l8.1-4.8c.3-.2.6-.1.8.2l2.3 3.9-1.9-.7c-.3-.1-.7-.1-1 .1-.4.1-.6.4-.7.8z" class="st0"/><path id="path1549" d="M331.6 166.3c-1 .6-1.3 1.9-.7 2.9.6 1 1.9 1.3 2.9.7 1-.6 1.3-1.9.7-2.9-.7-.9-1.9-1.3-2.9-.7zm1.7 1.4c.2.4.1.8-.3 1-.4.2-.8.1-1-.3-.2-.4-.1-.8.3-1 .3-.1.8 0 1 .3z" class="st0"/></g><g id="g1557"><g id="g1555"><path id="path1553" d="m358.6 176.2 3.4-4.1c1.2.8 2.7 1.2 4.2 1.1 3.5-.4 6.1-3.5 5.8-7.1-.1-.9-.3-1.7-.8-2.5-.4-.7-.9-1.4-1.6-1.9-.7-.5-1.4-.9-2.2-1.2-.8-.3-1.7-.3-2.6-.3-3.5.4-6.1 3.5-5.8 7.1.1 1.5.8 2.9 1.9 3.9l-3.4 4.1c-.1.1-.2.3-.1.5 0 .2.1.3.2.4.4.3.8.3 1 0zm7.5-4.3c-2.8.3-5.4-1.8-5.7-4.6-.3-2.8 1.8-5.4 4.6-5.7 2.8-.3 5.4 1.8 5.7 4.6.3 2.8-1.8 5.4-4.6 5.7z" class="st0"/></g></g><g id="g1563"><g id="g1561"><path id="path1559" d="m447.3 176.2 3.4-4.1c1.2.8 2.7 1.2 4.2 1.1 3.5-.4 6.1-3.5 5.8-7.1-.1-.9-.3-1.7-.8-2.5-.4-.7-.9-1.4-1.6-1.9-.7-.5-1.4-.9-2.2-1.2-.8-.3-1.7-.3-2.6-.3-3.5.4-6.1 3.5-5.8 7.1.1 1.5.8 2.9 1.9 3.9l-3.4 4.1c-.1.1-.2.3-.1.5 0 .2.1.3.2.4.4.3.8.3 1 0zm7.5-4.3c-2.8.3-5.4-1.8-5.7-4.6-.3-2.8 1.8-5.4 4.6-5.7 2.8-.3 5.4 1.8 5.7 4.6.3 2.8-1.8 5.4-4.6 5.7z" class="st0"/></g></g></g><path id="path3735" d="M175.363 196.979a.357.357 0 0 1-.356.344h-73.37a.357.357 0 0 1-.357-.344c0-.185.164-.344.356-.344h73.37c.193 0 .357.159.357.344z" class="st0" style="fill:#4ea8f1;fill-opacity:1;stroke-width:.269288"/><path id="path1569" d="M175.363 187.983a.357.357 0 0 1-.356.344h-73.37a.357.357 0 0 1-.357-.344c0-.185.164-.344.356-.344h73.37c.193 0 .357.159.357.344z" class="st0" style="fill:#4ea8f1;fill-opacity:1;stroke-width:.269288"/><path id="path1597" d="M54.73 215.46v-2.99c0-.132.105-.238.237-.238h27.411c.133 0 .238.106.238.238v2.99a.237.237 0 0 1-.238.238h-27.41a.237.237 0 0 1-.239-.238zm27.41-2.752H55.206v2.54H82.14z" class="st0" style="fill:#4ea8f1;stroke-width:.264583"/><path id="path1599" d="M42.373 170.798h-.026c-.132-.026-.212-.132-.185-.264.635-3.89 4.021-6.747 7.964-6.747h37.147c3.942 0 7.33 2.857 7.964 6.747v.026a.237.237 0 0 1-.238.238zm52.335-.45c-.714-3.545-3.837-6.111-7.461-6.085H50.099c-3.625 0-6.747 2.54-7.435 6.086z" class="st0 UnoptimicedTransforms" style="fill:#4ea8f1;stroke-width:.264583"/><path id="path1603" d="M42.03 197.627v-.423c0-.132.105-.238.237-.238h52.838c.132 0 .238.106.238.238v.423a8.068 8.068 0 0 1-8.07 8.07H50.1c-4.471.026-8.07-3.598-8.07-8.07zm.45-.159v.186c0 4.206 3.412 7.593 7.62 7.62h37.147c4.207 0 7.593-3.414 7.62-7.62v-.186z" class="st0" style="fill:#4ea8f1;stroke-width:.264583"/><path id="path1605" d="M42.03 196.013v-24.156a.237.237 0 1 1 .476 0v24.156a.237.237 0 0 1-.239.238.237.237 0 0 1-.238-.238z" class="st0" style="fill:#4ea8f1;stroke-width:.264583"/><path id="path1607" d="M94.867 195.88v-24.023c0-.133.105-.238.238-.238.132 0 .238.105.238.238v24.024a.237.237 0 0 1-.238.238.237.237 0 0 1-.238-.238z" class="st0" style="fill:#4ea8f1;stroke-width:.264583"/><path id="path1609" d="M63.381 212.47v-6.059c0-.132.106-.238.238-.238.133 0 .238.106.238.238v6.06a.237.237 0 0 1-.238.237.237.237 0 0 1-.238-.238z" class="st0" style="fill:#4ea8f1;stroke-width:.264583"/><path id="path1611" d="M73.515 212.47v-6.059c0-.132.106-.238.238-.238s.238.106.238.238v6.06a.237.237 0 0 1-.238.237.237.237 0 0 1-.238-.238z" class="st0" style="fill:#4ea8f1;stroke-width:.264583"/><path id="Twitter" d="M82.021 175.135c-.98.447-2.037.749-3.145.884a5.604 5.604 0 0 0 2.409-3.106c-1.06.642-2.23 1.11-3.48 1.36a5.401 5.401 0 0 0-3.998-1.772c-3.023 0-5.475 2.515-5.475 5.616 0 .44.047.868.141 1.28-4.552-.235-8.587-2.469-11.29-5.87a5.718 5.718 0 0 0-.741 2.826c0 1.947.967 3.667 2.437 4.674a5.377 5.377 0 0 1-2.483-.7v.069c0 2.722 1.889 4.992 4.396 5.507-.46.131-.943.197-1.443.197-.353 0-.698-.034-1.031-.1.697 2.23 2.718 3.855 5.116 3.899a10.815 10.815 0 0 1-8.11 2.328 15.25 15.25 0 0 0 8.396 2.521c10.076 0 15.584-8.556 15.584-15.978 0-.245-.005-.489-.014-.728 1.07-.792 2-1.78 2.731-2.907" style="fill:#4ea8f1;fill-opacity:1;fill-rule:evenodd;stroke:none;stroke-width:.556178"/><path id="rect2747" d="M542.922-34.466h198.156V37.07H542.922z" style="fill:url(#pattern4178);stroke:none;stroke-width:.264583"/><path id="path4033" d="M56.688 164.895c-2.964.101-5.973-.157-8.901.377-2.061.69-3.596 2.489-4.346 4.484 1.032.137 2.118 0 3.17.049h47.33c-.86-2.453-3.066-4.665-5.777-4.76-4.173-.236-8.358-.103-12.536-.151-6.313-.02-12.627-.002-18.94 0z" style="fill:url(#pattern4037);fill-opacity:1;stroke:#fff;stroke-width:.314619;stroke-miterlimit:2;stroke-dasharray:none;stroke-dashoffset:9.92504;stroke-opacity:1;paint-order:stroke fill markers"/><path id="path4040" d="M43.16 198.22c.007 1.69.894 3.269 2.098 4.41 1.072 1.016 2.445 1.751 3.917 1.948 2.04.077 4.084.07 6.126.093 8.975.05 17.951.05 26.927-.003 2.003-.022 4.007-.017 6.008-.093 1.268-.175 2.453-.775 3.447-1.568.87-.704 1.608-1.604 1.992-2.666.079-.206.137-.362.207-.582a7.515 7.515 0 0 0 .354-1.682H43.16v.143zm25.604 2.102c1.235.012 2.473-.026 3.706.06.35.02.77.168.852.553.095.393-.191.798-.582.873-.685.146-1.393.11-2.089.139-1.714.02-3.43.064-5.145.014-.449-.04-.968-.01-1.325-.328-.38-.35-.162-1.092.35-1.17.81-.125 1.634-.104 2.451-.13.594-.007 1.188-.01 1.782-.011z" style="fill:url(#pattern4042);fill-opacity:1;stroke:#fff;stroke-width:.314619;stroke-miterlimit:2;stroke-dasharray:none;stroke-dashoffset:9.92504;stroke-opacity:1;paint-order:stroke fill markers"/><path id="path1601" d="M64.598 201.12c0-.133.106-.238.238-.238h7.673c.133 0 .238.105.238.238a.237.237 0 0 1-.238.238h-7.673a.237.237 0 0 1-.238-.238z" class="st0" style="fill:#4ea8f1;stroke-width:.26458333;stroke:#fff;stroke-dasharray:none;paint-order:fill markers stroke"/><path id="path4119" d="M204.935 165.823c-1.078.023-2.162.01-3.23.162-1.622.272-3.257.726-4.637 1.652-.628.438-1.23 1.007-1.467 1.755-.044.236-.05.487-.059.695-.034 1.952-.01 3.903-.018 5.855 3.388.009 6.775-.023 10.162.031.489.03.994-.009 1.469.125.392.14.428.61.463.966.048.783.068 1.577-.06 2.353-.041.28-.238.545-.535.576-.794.096-1.597.072-2.396.095-5.52.06-11.04-.015-16.56.08-.632.03-1.287-.024-1.889.211-1.423.459-2.527 1.596-3.233 2.883-.886 1.619-1.309 3.454-1.478 5.28-.03.384-.053.785-.064 1.141-.052 1.828-.004 3.665.265 5.476.317 1.81.935 3.635 2.162 5.038a5.53 5.53 0 0 0 2.7 1.7c.478.185.996.125 1.497.151 1.067.021 2.134.022 3.202.03.037-1.946.027-3.894.112-5.839.04-.882.188-1.77.575-2.572.451-1.046 1.036-2.042 1.818-2.877a9.837 9.837 0 0 1 4.758-2.83c.926-.159 1.87-.134 2.806-.165 3.206-.062 6.413-.055 9.618-.13.155-.006.34-.011.493-.02.454-.013.917-.066 1.324-.285.99-.428 1.832-1.199 2.289-2.181.369-.633.377-1.383.417-2.093l.018-.532c.051-3.076.023-6.153.032-9.23v-3.804c-.238-.523-.53-1.034-.966-1.418-1.048-.953-2.412-1.464-3.763-1.817-.948-.244-1.919-.404-2.899-.42a62.623 62.623 0 0 0-2.926-.042zm-5.498 2.791a3.11 3.11 0 0 1 2.751 1.543c.602.989.6 2.3-.003 3.288-.55 1.006-1.72 1.567-2.843 1.54-1.261-.023-2.446-.897-2.847-2.092-.45-1.245-.073-2.766.982-3.59a3.191 3.191 0 0 1 1.96-.689z" style="fill:url(#pattern4121);fill-opacity:1;stroke:#fff;stroke-width:.111235;stroke-miterlimit:2;stroke-dasharray:none;stroke-dashoffset:9.92504;stroke-opacity:1;paint-order:fill markers stroke"/><path id="path4" d="M105.202 186.11c.042-.045.335-.384.651-.752a595.307 595.307 0 0 1 1.176-1.37c.147-.172.274-.32.282-.327l.461-.536c.245-.287.481-.562.524-.61l.578-.67a603.808 603.808 0 0 1 2.355-2.74l.536-.626c.498-.575 1.367-1.584 1.695-1.968.229-.268.625-.729.88-1.024.955-1.107 1.078-1.252 1.09-1.285.008-.02-.127-.24-.3-.492-.172-.25-.45-.657-.62-.902-.626-.912-.927-1.35-1.174-1.713-.139-.205-.392-.573-.562-.819l-.655-.953-.531-.774c-.26-.375-.516-.749-1.105-1.608a1930.555 1930.555 0 0 0-2.055-2.993c-.232-.335-.795-1.156-1.253-1.824a2493.84 2493.84 0 0 0-1.43-2.084l-.598-.87 3.93-.009 3.93-.008.048.066c.058.08.5.722 1.209 1.755a8645.772 8645.772 0 0 0 5.22 7.603c.185.27.349.492.363.492.015 0 .037-.018.05-.04.013-.023.093-.12.177-.216.085-.097.367-.424.627-.727a1146.155 1146.155 0 0 1 2.856-3.32l.677-.789a671.02 671.02 0 0 0 1.982-2.306c.154-.18.397-.463.54-.627.143-.164.518-.599.834-.967.315-.369.623-.727.684-.797l.111-.127h2.336l-.186.216-.338.393c-.083.098-.246.285-.36.417a365.574 365.574 0 0 1-2.513 2.92c-.044.049-.222.257-.396.461-.174.205-.502.588-.729.85a1953.088 1953.088 0 0 0-2.865 3.332c-.207.243-1.145 1.334-1.551 1.803-.64.741-.894 1.04-.894 1.058 0 .02.148.239.998 1.474a2100.597 2100.597 0 0 1 1.754 2.552 623.588 623.588 0 0 0 1.382 2.011 510.27 510.27 0 0 1 1.48 2.159c.489.707.76 1.102 1.315 1.91l.848 1.237.829 1.207c.296.434.623.91.725 1.058l.573.833c.213.311.478.697.59.856l.2.29h-7.88l-.164-.239-.327-.475-.462-.672-.685-1-.908-1.322-.878-1.279c-.197-.285-.586-.85-.864-1.256a1402.57 1402.57 0 0 0-2.59-3.774l-.324-.474-.117.132a1137.635 1137.635 0 0 0-3.908 4.54l-1.547 1.8a1185.852 1185.852 0 0 1-3.082 3.584l-.372.435h-2.349zm23.156-1.617c-.01-.026-.493-.722-1.887-2.717l-1.606-2.299c-.571-.819-1.14-1.632-1.264-1.807-.124-.175-.567-.809-.985-1.408a2264.149 2264.149 0 0 0-2.34-3.35c-.725-1.039-1.704-2.439-1.822-2.606-.24-.341-1.028-1.473-1.183-1.698a87.834 87.834 0 0 0-.417-.595l-.615-.878a1497.277 1497.277 0 0 0-3.418-4.891l-.931-1.333h-1.785c-1.42 0-1.78.008-1.764.037.012.02.084.124.159.23l.21.301.328.47a19152.272 19152.272 0 0 1 3.692 5.287l1.133 1.62c.124.175.505.72.847 1.211.342.492.75 1.076.907 1.298l.776 1.11a1576.746 1576.746 0 0 0 2.748 3.935 13823.023 13823.023 0 0 1 3.683 5.27c.674.966.722 1.035.894 1.277l.61.878.477.688h1.78c1.135 0 1.779-.011 1.773-.03z" style="fill:#4ea8f1;fill-opacity:1;stroke-width:.112542"/><text xml:space="preserve" id="text4" x="133.811" y="186.209" style="font-size:14.6248px;line-height:1.25;font-family:&quot;Segoe UI&quot;;-inkscape-font-specification:&quot;Segoe UI&quot;;fill:#4ea8f1;fill-opacity:1;stroke-width:.609366"><tspan id="tspan4" x="133.811" y="186.209" style="font-style:normal;font-variant:normal;font-weight:700;font-stretch:normal;font-family:&quot;Segoe UI&quot;;-inkscape-font-specification:&quot;Segoe UI Bold&quot;;fill:#4ea8f1;fill-opacity:1;stroke-width:.609366">.COM</tspan></text><path id="path5" d="M72.128 178.637a12.805 12.805 0 0 0 .232-.269 3.637 3.637 0 0 1 .094-.11l.066-.076.073-.085.229-.266.07-.081.067-.08a75.161 75.161 0 0 0 .464-.54.395.395 0 0 0-.038-.063l-.078-.114a66.96 66.96 0 0 1-.37-.54 56.45 56.45 0 0 1-.14-.203l-.087-.126-.07-.104a117.143 117.143 0 0 0-.443-.643l-.076-.11.498-.002h.497l.006.007a32.646 32.646 0 0 1 .267.388l.078.113a120.227 120.227 0 0 0 .383.559l.086.125a.574.574 0 0 0 .046.062c.002 0 .005-.002.007-.005a85.145 85.145 0 0 0 1.06-1.234l.014-.016h.296l-.024.028-.043.05a11.785 11.785 0 0 1-.092.107 47.179 47.179 0 0 1-.414.48 265.418 265.418 0 0 0-.672.785 221.875 221.875 0 0 1 .71 1.037 91.442 91.442 0 0 1 .471.685 32.312 32.312 0 0 1 .147.214l.026.037h-.998l-.02-.03a15.647 15.647 0 0 0-.1-.146 44.084 44.084 0 0 0-.313-.456 110.262 110.262 0 0 1-.385-.56l-.052-.076-.041-.06-.015.016a145.492 145.492 0 0 0-.69.803c-.221.257-.335.39-.34.394l-.05.06-.048.055h-.297zm2.932-.205a377.615 377.615 0 0 1-.914-1.31l-.11-.156a449.153 449.153 0 0 0-.8-1.146 91.97 91.97 0 0 1-.143-.204l-.118-.17h-.226c-.18 0-.225.002-.223.006l.02.029.027.038.041.06a238.892 238.892 0 0 1 .61.874 34.19 34.19 0 0 1 .223.318 35.36 35.36 0 0 1 .246.353l.2.285.226.324.141.202a127.163 127.163 0 0 1 .29.414l.06.087h.225c.144 0 .225 0 .225-.004z" style="fill:#fff;fill-opacity:1;stroke-width:.0142463"/></g><style id="style1314" type="text/css">.st0{fill:#4ea8f1}</style></svg>